<svg width="678" height="536" viewBox="0 0 678 536" fill="none" xmlns="http://www.w3.org/2000/svg">
<g clip-path="url(#clip0)">
<path d="M401.616 313.109C378.349 265.798 396.963 224.693 429.537 195.996C474.521 175.056 518.729 184.363 551.303 226.244C572.559 213.822 599.622 211.132 621.88 216.161C639.055 151.474 622.973 73.9183 565.647 32.1078C491.08 -22.278 386.543 -5.91763 332.157 68.6496C257.59 14.2638 153.053 30.6242 98.6674 105.191C44.2816 179.758 60.6419 284.295 135.209 338.681L405.241 535.629L476.847 436.426L401.616 313.109Z" fill="url(#paint0_linear)"/>
<path d="M552.326 232.716C546.794 223.243 539.45 214.952 530.713 208.317C521.977 201.683 512.018 196.834 501.407 194.049C490.796 191.264 479.741 190.596 468.872 192.085C458.003 193.573 447.533 197.188 438.062 202.723C428.59 208.258 420.302 215.605 413.67 224.345C407.039 233.084 402.194 243.044 399.412 253.656C396.631 264.268 395.967 275.324 397.459 286.192C398.951 297.06 402.57 307.528 408.109 316.998L492.39 461.216L636.608 376.934C646.077 371.4 654.364 364.055 660.995 355.318C667.626 346.582 672.471 336.625 675.254 326.016C678.036 315.407 678.702 304.353 677.213 293.487C675.724 282.621 672.11 272.154 666.576 262.684C661.042 253.215 653.697 244.928 644.96 238.297C636.224 231.666 626.267 226.821 615.657 224.039C605.048 221.256 593.995 220.59 583.129 222.079C572.262 223.568 561.796 227.182 552.326 232.716V232.716Z" fill="url(#paint1_linear)"/>
<path d="M551.63 235.37C540.973 217.134 523.508 203.878 503.077 198.519C482.647 193.16 460.924 196.137 442.688 206.794C424.452 217.451 411.196 234.916 405.837 255.347C400.478 275.778 403.455 297.501 414.112 315.737L494.478 453.255L631.997 372.888C641.026 367.611 648.928 360.608 655.251 352.277C661.574 343.946 666.194 334.452 668.847 324.335C671.501 314.219 672.136 303.679 670.716 293.318C669.296 282.956 665.85 272.975 660.573 263.946C655.296 254.916 648.292 247.014 639.961 240.692C631.63 234.369 622.136 229.749 612.02 227.095C601.903 224.442 591.364 223.807 581.002 225.227C570.64 226.646 560.66 230.093 551.63 235.37V235.37Z" fill="#E53935"/>
<path opacity="0.2" d="M630.543 373.615C648.75 362.975 661.994 345.549 667.369 325.158C672.745 304.767 669.813 283.076 659.218 264.843C648.623 246.611 631.228 233.325 610.851 227.899C590.473 222.474 568.775 225.353 550.517 235.904L629.697 374.109L630.543 373.615Z" fill="black"/>
<path d="M616.488 212.592C594.44 207.582 571.311 211.157 551.805 222.591C539.859 202.159 520.287 187.308 497.393 181.305C474.5 175.302 450.159 178.638 429.725 190.58C409.29 202.522 394.436 222.091 388.429 244.983C382.421 267.876 385.753 292.217 397.691 312.654L468.499 433.824L402.835 523.865L267.998 425.518L279.355 418.885C301.612 405.877 318.082 384.885 325.421 360.173C332.76 335.461 330.416 308.882 318.866 285.835C307.316 262.788 287.425 245.003 263.236 236.092C239.046 227.18 212.371 227.811 188.63 237.857C184.625 239.558 180.732 241.511 176.975 243.706C167.192 226.958 152.814 213.366 135.543 204.539C118.272 195.713 98.8333 192.022 79.5293 193.904C80.1585 185.846 81.3973 177.847 83.235 169.977C83.4385 169.105 83.6564 168.225 83.8744 167.346C84.7464 163.895 85.7345 160.463 86.839 157.05C86.9262 156.789 87.0061 156.52 87.1006 156.258C87.6019 154.747 88.1324 153.235 88.6773 151.731C89.3022 150.017 89.9634 148.302 90.6537 146.601C90.9952 145.751 91.344 144.901 91.7073 144.058C92.0561 143.237 92.4122 142.416 92.7754 141.595C92.7861 141.57 92.7982 141.546 92.8118 141.522C93.1823 140.68 93.5674 139.844 93.9598 139.008C94.0034 138.907 94.047 138.805 94.0978 138.711C94.4466 137.969 94.7954 137.235 95.1587 136.502C95.5656 135.666 95.9798 134.838 96.4012 134.009C97.2949 132.244 98.2323 130.5 99.2059 128.756C99.5547 128.117 99.918 127.484 100.289 126.852C100.725 126.089 101.168 125.326 101.626 124.571C101.836 124.222 102.047 123.866 102.265 123.517C103.449 121.562 104.685 119.627 105.971 117.711C106.269 117.261 106.574 116.81 106.886 116.36C107.308 115.742 107.736 115.125 108.165 114.514C108.681 113.788 109.197 113.061 109.727 112.335C161.724 41.0467 261.669 25.4027 332.957 77.399C384.953 6.1112 484.898 -9.53274 556.194 42.4636C582.215 61.4442 601.895 87.8438 612.654 118.202C623.414 148.561 624.75 181.461 616.488 212.592V212.592Z" fill="#E53935"/>
<path d="M167.652 258.1C155.607 237.511 135.879 222.549 112.805 216.503C89.7318 210.456 65.2014 213.82 44.6076 225.856C24.0138 237.891 9.04235 257.612 2.98506 280.683C-3.07224 303.753 0.280432 328.285 12.306 348.885L103.091 504.231L258.437 413.445C279.026 401.401 293.99 381.673 300.037 358.599C306.084 335.525 302.72 310.994 290.684 290.399C278.649 269.805 258.927 254.833 235.856 248.776C212.784 242.719 188.251 246.073 167.652 258.1V258.1Z" fill="#E53935"/>
<path opacity="0.2" d="M333.226 77.4426L188.63 237.857C184.625 239.557 180.732 241.511 176.975 243.706C167.192 226.958 152.814 213.366 135.543 204.539C118.272 195.712 98.8333 192.022 79.5293 193.904C80.1585 185.846 81.3972 177.847 83.235 169.977C83.4385 169.105 83.6564 168.225 83.8744 167.346C84.7391 163.895 85.7273 160.463 86.839 157.05C86.9262 156.789 87.0061 156.52 87.1006 156.258C87.6019 154.747 88.1275 153.238 88.6773 151.731C89.3022 150.017 89.9562 148.302 90.6537 146.601C90.9952 145.751 91.344 144.901 91.7073 144.058C92.0561 143.237 92.4121 142.416 92.7754 141.595C92.786 141.57 92.7982 141.546 92.8117 141.522C93.1823 140.68 93.5674 139.844 93.9598 139.008C94.0034 138.907 94.047 138.805 94.0978 138.71C94.4466 137.969 94.7954 137.235 95.1587 136.502C95.5656 135.666 95.9798 134.838 96.4012 134.009C97.2949 132.244 98.2323 130.5 99.2059 128.756C99.5547 128.116 99.918 127.484 100.289 126.852C100.725 126.089 101.168 125.326 101.626 124.571C101.836 124.222 102.047 123.866 102.265 123.517C103.449 121.562 104.685 119.627 105.971 117.711C106.269 117.261 106.574 116.81 106.886 116.36C107.308 115.742 107.736 115.125 108.165 114.514C108.681 113.788 109.197 113.061 109.727 112.334C161.724 41.0466 261.669 25.4027 332.957 77.399C333.029 77.3118 333.095 77.2173 333.167 77.1301L333.226 77.4426Z" fill="black"/>
</g>
<defs>
<linearGradient id="paint0_linear" x1="347.48" y1="535.629" x2="347.48" y2="0" gradientUnits="userSpaceOnUse">
<stop stop-color="#808080" stop-opacity="0.25"/>
<stop offset="0.53514" stop-color="#808080" stop-opacity="0.12"/>
<stop offset="1" stop-color="#808080" stop-opacity="0.1"/>
</linearGradient>
<linearGradient id="paint1_linear" x1="245966" y1="193487" x2="245966" y2="93235" gradientUnits="userSpaceOnUse">
<stop stop-color="#808080" stop-opacity="0.25"/>
<stop offset="0.53514" stop-color="#808080" stop-opacity="0.12"/>
<stop offset="1" stop-color="#808080" stop-opacity="0.1"/>
</linearGradient>
<clipPath id="clip0">
<rect width="678" height="535.629" fill="white"/>
</clipPath>
</defs>
</svg>
