<svg width="678" height="536" viewBox="0 0 678 536" fill="none" xmlns="http://www.w3.org/2000/svg">
<g clip-path="url(#clip0)">
<path d="M401.616 313.325C378.349 265.982 396.963 224.848 429.537 196.132C474.521 175.177 518.729 184.49 551.303 226.4C572.559 213.97 599.622 211.278 621.88 216.311C639.055 151.579 622.973 73.9694 565.647 32.13C491.08 -22.2934 386.543 -5.92172 332.157 68.6971C257.59 14.2737 153.053 30.6453 98.6674 105.264C44.2816 179.883 60.6419 284.492 135.209 338.916L405.241 536L476.847 436.728L401.616 313.325Z" fill="url(#paint0_linear)"/>
<path d="M552.326 232.878C546.794 223.397 539.45 215.101 530.713 208.462C521.977 201.822 512.018 196.971 501.407 194.183C490.796 191.396 479.741 190.728 468.872 192.218C458.003 193.707 447.533 197.324 438.062 202.864C428.59 208.403 420.302 215.755 413.67 224.5C407.039 233.245 402.194 243.212 399.412 253.831C396.631 264.45 395.967 275.514 397.459 286.39C398.951 297.266 402.57 307.741 408.109 317.218L492.39 461.535L636.608 377.195C646.077 371.657 654.364 364.307 660.995 355.564C667.626 346.822 672.471 336.858 675.254 326.241C678.036 315.625 678.702 304.564 677.213 293.69C675.724 282.816 672.11 272.342 666.576 262.866C661.042 253.39 653.697 245.098 644.96 238.462C636.224 231.827 626.267 226.978 615.657 224.194C605.048 221.409 593.995 220.743 583.129 222.233C572.262 223.723 561.796 227.34 552.326 232.878V232.878Z" fill="url(#paint1_linear)"/>
<path d="M551.63 235.533C540.973 217.284 523.508 204.02 503.077 198.657C482.647 193.294 460.924 196.273 442.688 206.937C424.452 217.602 411.196 235.079 405.837 255.524C400.478 275.969 403.455 297.706 414.112 315.955L494.478 453.568L631.997 373.146C641.026 367.866 648.928 360.857 655.251 352.521C661.574 344.184 666.194 334.683 668.847 324.56C671.501 314.437 672.136 303.889 670.716 293.521C669.296 283.152 665.85 273.164 660.573 264.129C655.296 255.093 648.292 247.185 639.961 240.858C631.63 234.531 622.136 229.908 612.02 227.252C601.903 224.597 591.364 223.962 581.002 225.382C570.64 226.803 560.66 230.252 551.63 235.533V235.533Z" fill="#FFA7A5"/>
<path opacity="0.2" d="M630.543 373.873C648.75 363.226 661.994 345.788 667.369 325.383C672.745 304.977 669.813 283.272 659.218 265.027C648.623 246.781 631.228 233.486 610.851 228.057C590.473 222.628 568.775 225.509 550.517 236.067L629.697 374.368L630.543 373.873Z" fill="black"/>
<path d="M616.488 212.739C594.44 207.726 571.311 211.303 551.805 222.744C539.859 202.298 520.287 187.438 497.393 181.43C474.5 175.423 450.159 178.762 429.725 190.712C409.29 202.662 394.436 222.244 388.429 245.153C382.421 268.061 385.753 292.42 397.691 312.87L468.499 434.124L402.835 524.228L267.998 425.813L279.355 419.174C301.612 406.158 318.082 385.152 325.421 360.422C332.76 335.693 330.416 309.095 318.866 286.033C307.316 262.97 287.425 245.172 263.236 236.255C239.046 227.337 212.371 227.969 188.63 238.021C184.625 239.723 180.732 241.678 176.975 243.874C167.192 227.115 152.814 213.513 135.543 204.681C118.272 195.848 98.8333 192.154 79.5293 194.038C80.1585 185.974 81.3973 177.97 83.235 170.094C83.4385 169.222 83.6564 168.342 83.8744 167.462C84.7464 164.008 85.7345 160.574 86.839 157.159C86.9262 156.897 87.0061 156.628 87.1006 156.366C87.6019 154.854 88.1324 153.341 88.6773 151.836C89.3022 150.12 89.9634 148.404 90.6537 146.703C90.9952 145.852 91.344 145.001 91.7073 144.158C92.0561 143.336 92.4122 142.515 92.7754 141.693C92.7861 141.668 92.7982 141.644 92.8118 141.62C93.1823 140.777 93.5674 139.941 93.9598 139.105C94.0034 139.003 94.047 138.901 94.0978 138.806C94.4466 138.065 94.7954 137.33 95.1587 136.596C95.5656 135.76 95.9798 134.931 96.4012 134.102C97.2949 132.335 98.2323 130.59 99.2059 128.845C99.5547 128.205 99.918 127.572 100.289 126.94C100.725 126.176 101.168 125.413 101.626 124.657C101.836 124.308 102.047 123.951 102.265 123.602C103.449 121.646 104.685 119.71 105.971 117.793C106.269 117.342 106.574 116.891 106.886 116.44C107.308 115.822 107.736 115.204 108.165 114.593C108.681 113.866 109.197 113.139 109.727 112.412C161.724 41.075 261.669 25.4202 332.957 77.4525C384.953 6.11534 484.898 -9.53942 556.194 42.4929C582.215 61.4867 601.895 87.9045 612.654 118.284C623.414 148.663 624.75 181.587 616.488 212.739V212.739Z" fill="#C5C5C5"/>
<path d="M167.652 258.278C155.607 237.676 135.879 222.703 112.805 216.653C89.7318 210.602 65.2014 213.968 44.6076 226.012C24.0138 238.055 9.04235 257.79 2.98506 280.877C-3.07224 303.963 0.280432 328.512 12.306 349.126L103.091 504.579L258.437 413.731C279.026 401.679 293.99 381.937 300.037 358.847C306.084 335.757 302.72 311.209 290.684 290.6C278.649 269.991 258.927 255.009 235.856 248.948C212.784 242.887 188.251 246.243 167.652 258.278V258.278Z" fill="#FFA7A5"/>
<path opacity="0.2" d="M333.226 77.4961L188.63 238.021C184.625 239.723 180.732 241.678 176.975 243.874C167.192 227.115 152.814 213.513 135.543 204.681C118.272 195.848 98.8333 192.154 79.5293 194.038C80.1585 185.974 81.3972 177.97 83.235 170.094C83.4385 169.222 83.6564 168.342 83.8744 167.462C84.7391 164.008 85.7273 160.574 86.839 157.159C86.9262 156.897 87.0061 156.628 87.1006 156.366C87.6019 154.854 88.1275 153.344 88.6773 151.836C89.3022 150.12 89.9562 148.404 90.6537 146.703C90.9952 145.852 91.344 145.001 91.7073 144.158C92.0561 143.336 92.4121 142.515 92.7754 141.693C92.786 141.668 92.7982 141.644 92.8117 141.62C93.1823 140.777 93.5674 139.941 93.9598 139.104C94.0034 139.003 94.047 138.901 94.0978 138.806C94.4466 138.065 94.7954 137.33 95.1587 136.596C95.5656 135.76 95.9798 134.931 96.4012 134.102C97.2949 132.335 98.2323 130.59 99.2059 128.845C99.5547 128.205 99.918 127.572 100.289 126.94C100.725 126.176 101.168 125.413 101.626 124.657C101.836 124.308 102.047 123.951 102.265 123.602C103.449 121.646 104.685 119.71 105.971 117.793C106.269 117.342 106.574 116.891 106.886 116.44C107.308 115.822 107.736 115.204 108.165 114.593C108.681 113.866 109.197 113.139 109.727 112.412C161.724 41.0749 261.669 25.4202 332.957 77.4525C333.029 77.3652 333.095 77.2707 333.167 77.1834L333.226 77.4961Z" fill="black"/>
</g>
<defs>
<linearGradient id="paint0_linear" x1="347.48" y1="536" x2="347.48" y2="0" gradientUnits="userSpaceOnUse">
<stop stop-color="#808080" stop-opacity="0.25"/>
<stop offset="0.53514" stop-color="#808080" stop-opacity="0.12"/>
<stop offset="1" stop-color="#808080" stop-opacity="0.1"/>
</linearGradient>
<linearGradient id="paint1_linear" x1="245966" y1="193621" x2="245966" y2="93299.5" gradientUnits="userSpaceOnUse">
<stop stop-color="#808080" stop-opacity="0.25"/>
<stop offset="0.53514" stop-color="#808080" stop-opacity="0.12"/>
<stop offset="1" stop-color="#808080" stop-opacity="0.1"/>
</linearGradient>
<clipPath id="clip0">
<rect width="678" height="536" fill="white"/>
</clipPath>
</defs>
</svg>
