<svg width="89" height="32" viewBox="0 0 89 32" fill="none" xmlns="http://www.w3.org/2000/svg">
<path d="M13.4062 23.6016C13.3281 23.1484 13.25 22.6172 13.1719 22.0078C13.1094 21.3828 13.0156 20.7344 12.8906 20.0625C12.7812 19.3906 12.6328 18.7188 12.4453 18.0469C12.2734 17.375 12.0312 16.7578 11.7188 16.1953C11.4219 15.6172 11.0469 15.125 10.5938 14.7188C10.1406 14.2969 9.59375 14 8.95312 13.8281C8.82812 13.7969 8.67188 13.7734 8.48438 13.7578C8.3125 13.7422 8.13281 13.7344 7.94531 13.7344C7.77344 13.7344 7.625 13.7422 7.5 13.7578C7.375 13.7734 7.3125 13.7969 7.3125 13.8281L6.51562 21.1406C6.5 21.2812 6.45312 21.4219 6.375 21.5625C6.3125 21.7031 6.22656 21.8281 6.11719 21.9375C6.02344 22.0312 5.89844 22.0938 5.74219 22.125C5.60156 22.1406 5.44531 22.0859 5.27344 21.9609V13.5703L1.64062 15.8672C1.45312 15.9766 1.21875 15.9922 0.9375 15.9141C0.65625 15.8203 0.476562 15.6641 0.398438 15.4453C0.617188 15.1641 0.984375 14.8516 1.5 14.5078C2.03125 14.1641 2.57031 13.8125 3.11719 13.4531C3.66406 13.0938 4.14844 12.7422 4.57031 12.3984C5.00781 12.0391 5.24219 11.7031 5.27344 11.3906L6.09375 2.85938C6.10938 2.71875 6.17188 2.61719 6.28125 2.55469C6.39062 2.47656 6.50781 2.42969 6.63281 2.41406C6.77344 2.38281 6.90625 2.375 7.03125 2.39062C7.17188 2.40625 7.26562 2.42188 7.3125 2.4375V10.1719L8.55469 9.35156L13.4062 3.25781H14.2266C14.3203 3.61719 14.2656 4.03125 14.0625 4.5C13.875 4.96875 13.625 5.42188 13.3125 5.85938C13.0156 6.29688 12.7109 6.69531 12.3984 7.05469C12.1016 7.39844 11.9062 7.625 11.8125 7.73438C11.7031 7.84375 11.5312 8.00781 11.2969 8.22656C11.0625 8.44531 10.7969 8.69531 10.5 8.97656C10.2188 9.24219 9.91406 9.52344 9.58594 9.82031C9.25781 10.1016 8.94531 10.375 8.64844 10.6406C8.35156 10.9062 8.08594 11.1484 7.85156 11.3672C7.61719 11.5703 7.4375 11.7188 7.3125 11.8125C8.03125 12 8.72656 12.2266 9.39844 12.4922C10.0859 12.7422 10.75 13.0469 11.3906 13.4062C11.7812 13.6406 12.125 14.0156 12.4219 14.5312C12.7344 15.0312 13.0078 15.6094 13.2422 16.2656C13.4766 16.9219 13.6719 17.6172 13.8281 18.3516C13.9844 19.0859 14.1016 19.7969 14.1797 20.4844C14.2734 21.1562 14.3203 21.7812 14.3203 22.3594C14.3359 22.9219 14.3125 23.3672 14.25 23.6953C14.1875 24.0234 14.0859 24.1953 13.9453 24.2109C13.8047 24.2266 13.625 24.0234 13.4062 23.6016ZM26.0391 12.6094C26.0391 12.5938 25.9844 12.5859 25.875 12.5859C25.7812 12.5859 25.7031 12.5938 25.6406 12.6094C25.0938 12.8125 24.6484 12.9922 24.3047 13.1484C23.9766 13.2891 23.6953 13.4141 23.4609 13.5234C23.2266 13.6328 23.0156 13.7344 22.8281 13.8281C22.6406 13.9062 22.4297 13.9922 22.1953 14.0859C21.9609 14.1641 21.6641 14.25 21.3047 14.3438C20.9609 14.4219 20.5078 14.5234 19.9453 14.6484V22.7812C19.9453 23.0625 19.8828 23.2109 19.7578 23.2266C19.6328 23.2422 19.4922 23.1875 19.3359 23.0625C19.1953 22.9219 19.0547 22.75 18.9141 22.5469C18.7891 22.3281 18.7266 22.1328 18.7266 21.9609C18.7109 21.6016 18.6875 21.1719 18.6562 20.6719C18.625 20.1562 18.5938 19.6328 18.5625 19.1016C18.5469 18.5547 18.5234 18.0156 18.4922 17.4844C18.4609 16.9531 18.4297 16.4766 18.3984 16.0547C18.3828 15.6328 18.3672 15.2969 18.3516 15.0469L18.3281 14.6484L16.2891 13.8281C16.2578 13.8125 16.2422 13.7578 16.2422 13.6641C16.2422 13.5703 16.2578 13.4844 16.2891 13.4062C16.3672 13.25 16.4922 13.125 16.6641 13.0312C16.8516 12.9219 17.0469 12.8438 17.25 12.7969C17.4531 12.7344 17.6484 12.6953 17.8359 12.6797C18.0391 12.6484 18.2031 12.625 18.3281 12.6094C18.3281 12.375 18.3438 11.9688 18.375 11.3906C18.4062 10.8125 18.4453 10.2031 18.4922 9.5625C18.5391 8.90625 18.5781 8.28906 18.6094 7.71094C18.6562 7.13281 18.6953 6.73438 18.7266 6.51562C18.7266 6.46875 18.7656 6.35156 18.8438 6.16406C18.9375 5.96094 19.0391 5.74219 19.1484 5.50781C19.2734 5.27344 19.4062 5.05469 19.5469 4.85156C19.6875 4.64844 19.8125 4.50781 19.9219 4.42969C20.0469 4.35156 20.1484 4.375 20.2266 4.5C20.3047 4.60938 20.3438 4.86719 20.3438 5.27344C20.3438 5.36719 20.3203 5.57812 20.2734 5.90625C20.2422 6.21875 20.1953 6.55469 20.1328 6.91406C20.0859 7.27344 20.0391 7.61719 19.9922 7.94531C19.9609 8.25781 19.9453 8.46094 19.9453 8.55469C19.9297 8.72656 19.9141 9.02344 19.8984 9.44531C19.8984 9.85156 19.8984 10.2969 19.8984 10.7812C19.8984 11.25 19.8984 11.6953 19.8984 12.1172C19.9141 12.5391 19.9297 12.8359 19.9453 13.0078C20.3359 13.1016 20.8516 13.1172 21.4922 13.0547C22.1328 12.9922 22.7734 12.8672 23.4141 12.6797C24.0703 12.4766 24.6797 12.2344 25.2422 11.9531C25.8047 11.6562 26.2109 11.3359 26.4609 10.9922C26.7578 10.5547 26.9844 10.0547 27.1406 9.49219C27.2969 8.92969 27.4375 8.35938 27.5625 7.78125C27.6875 7.1875 27.8438 6.60156 28.0312 6.02344C28.2188 5.44531 28.5 4.92188 28.875 4.45312C29.3281 3.90625 29.7734 3.53125 30.2109 3.32812C30.6641 3.125 31.0781 3.05469 31.4531 3.11719C31.8281 3.16406 32.1484 3.32812 32.4141 3.60938C32.6953 3.875 32.875 4.20312 32.9531 4.59375C33.0469 4.98438 33.0312 5.42188 32.9062 5.90625C32.7969 6.375 32.5391 6.84375 32.1328 7.3125C32.0234 7.4375 31.8516 7.61719 31.6172 7.85156C31.3984 8.08594 31.1406 8.35156 30.8438 8.64844C30.5625 8.94531 30.2578 9.25781 29.9297 9.58594C29.6172 9.91406 29.3125 10.2266 29.0156 10.5234C28.7188 10.8047 28.4453 11.0625 28.1953 11.2969C27.9609 11.5312 27.7891 11.7031 27.6797 11.8125C27.5859 12.75 27.5547 13.7266 27.5859 14.7422C27.6172 15.7578 27.6953 16.7734 27.8203 17.7891C27.9453 18.8047 28.1016 19.8047 28.2891 20.7891C28.4766 21.7734 28.6719 22.7109 28.875 23.6016H27.2812L26.0391 12.6094ZM28.875 6.91406C28.8438 7.02344 28.7891 7.21094 28.7109 7.47656C28.6328 7.74219 28.5469 8.03125 28.4531 8.34375C28.375 8.64062 28.2969 8.92969 28.2188 9.21094C28.1562 9.47656 28.1094 9.66406 28.0781 9.77344C28.5469 9.53906 28.9766 9.21094 29.3672 8.78906C29.7734 8.36719 30.125 7.92188 30.4219 7.45312C30.7188 6.98438 30.9609 6.52344 31.1484 6.07031C31.3516 5.61719 31.4766 5.23438 31.5234 4.92188C31.5859 4.60938 31.5703 4.39844 31.4766 4.28906C31.3828 4.17969 31.1953 4.23438 30.9141 4.45312C30.5078 4.79688 30.1094 5.16406 29.7188 5.55469C29.3438 5.94531 29.0625 6.39844 28.875 6.91406ZM39.6562 23.6016C39.625 23.5078 39.6094 23.3594 39.6094 23.1562C39.6094 22.9531 39.625 22.8281 39.6562 22.7812C39.6719 22.7656 39.7109 22.7422 39.7734 22.7109C39.8516 22.6641 39.9297 22.6172 40.0078 22.5703C40.1016 22.5234 40.1875 22.4844 40.2656 22.4531C40.3594 22.4062 40.4297 22.375 40.4766 22.3594C41.1641 22.1719 41.8438 21.9688 42.5156 21.75C43.2031 21.5312 43.875 21.2812 44.5312 21C45.1875 20.7188 45.8203 20.3984 46.4297 20.0391C47.0391 19.6641 47.625 19.2266 48.1875 18.7266C49.5312 17.5078 50.4922 16.4609 51.0703 15.5859C51.6641 14.6953 51.9766 13.9453 52.0078 13.3359C52.0391 12.7266 51.8438 12.2422 51.4219 11.8828C51.0156 11.5078 50.4922 11.2344 49.8516 11.0625C49.2266 10.875 48.5312 10.7734 47.7656 10.7578C47.0156 10.7422 46.3125 10.7812 45.6562 10.875C45.0156 10.9688 44.4688 11.1016 44.0156 11.2734C43.5781 11.4453 43.3516 11.625 43.3359 11.8125L42.5156 19.9453C42.5 20.0859 42.4219 20.1953 42.2812 20.2734C42.1562 20.3359 42.0156 20.3672 41.8594 20.3672C41.7188 20.3672 41.5859 20.3359 41.4609 20.2734C41.3516 20.1953 41.2969 20.0859 41.2969 19.9453V13.4062H39.6562C39.6406 13.375 39.6328 13.3125 39.6328 13.2188C39.6328 13.1094 39.6406 13.0391 39.6562 13.0078C39.7188 12.9297 39.8203 12.7969 39.9609 12.6094C40.1172 12.4062 40.2812 12.1953 40.4531 11.9766C40.625 11.7578 40.7891 11.5547 40.9453 11.3672C41.1016 11.1797 41.2188 11.0547 41.2969 10.9922C41.3125 10.7891 41.3359 10.4375 41.3672 9.9375C41.4141 9.4375 41.4531 8.90625 41.4844 8.34375C41.5312 7.78125 41.5703 7.25 41.6016 6.75C41.6484 6.23438 41.6797 5.88281 41.6953 5.69531C41.7266 5.27344 41.6797 4.97656 41.5547 4.80469C41.4453 4.61719 41.2891 4.52344 41.0859 4.52344C40.8828 4.50781 40.6562 4.5625 40.4062 4.6875C40.1562 4.79688 39.9062 4.9375 39.6562 5.10938C39.4062 5.28125 39.1719 5.46094 38.9531 5.64844C38.7344 5.83594 38.5625 5.98438 38.4375 6.09375C38.3125 6.21875 38.0938 6.4375 37.7812 6.75C37.4688 7.04688 37.1406 7.375 36.7969 7.73438C36.4531 8.07812 36.125 8.40625 35.8125 8.71875C35.5 9.01562 35.2891 9.22656 35.1797 9.35156H33.9609C33.8203 8.91406 33.9062 8.45312 34.2188 7.96875C34.5469 7.46875 35.0312 6.96094 35.6719 6.44531C36.3125 5.92969 37.0703 5.41406 37.9453 4.89844C38.8359 4.38281 39.7734 3.89844 40.7578 3.44531C41.7422 2.97656 42.7266 2.54688 43.7109 2.15625C44.7109 1.76562 45.6406 1.4375 46.5 1.17188C47.375 0.890625 48.1406 0.679688 48.7969 0.539062C49.4531 0.398438 49.9297 0.351562 50.2266 0.398438C50.5078 0.460938 50.6875 0.617188 50.7656 0.867188C50.8438 1.11719 50.8594 1.39844 50.8125 1.71094C50.7656 2.00781 50.6797 2.30469 50.5547 2.60156C50.4453 2.89844 50.3359 3.11719 50.2266 3.25781C49.7422 3.94531 49.2969 4.57031 48.8906 5.13281C48.4844 5.67969 48.0625 6.20312 47.625 6.70312C47.2031 7.1875 46.7422 7.67969 46.2422 8.17969C45.7578 8.66406 45.1953 9.19531 44.5547 9.77344C45.0859 9.86719 45.5938 9.88281 46.0781 9.82031C46.5781 9.75781 47.0625 9.69531 47.5312 9.63281C48.0156 9.55469 48.5078 9.51562 49.0078 9.51562C49.5234 9.5 50.0703 9.58594 50.6484 9.77344C50.9922 9.88281 51.2969 10 51.5625 10.125C51.8281 10.25 52.0547 10.3984 52.2422 10.5703C52.4453 10.7422 52.6094 10.9609 52.7344 11.2266C52.875 11.4766 52.9922 11.7969 53.0859 12.1875C53.2891 13.125 53.2109 14.0391 52.8516 14.9297C52.4922 15.8203 51.9453 16.6641 51.2109 17.4609C50.4922 18.2578 49.6484 19.0078 48.6797 19.7109C47.7109 20.3984 46.7266 21.0234 45.7266 21.5859C44.7266 22.1484 43.7578 22.6328 42.8203 23.0391C41.8984 23.4453 41.1172 23.7656 40.4766 24C40.3047 24.0781 40.1406 24.0703 39.9844 23.9766C39.8281 23.8672 39.7188 23.7422 39.6562 23.6016ZM43.3359 9.35156C43.4453 9.25781 43.6016 9.10938 43.8047 8.90625C44.0234 8.6875 44.2656 8.44531 44.5312 8.17969C44.8125 7.91406 45.1016 7.64062 45.3984 7.35938C45.6953 7.0625 45.9688 6.78125 46.2188 6.51562C46.4844 6.23438 46.7188 5.98438 46.9219 5.76562C47.1406 5.54688 47.2969 5.38281 47.3906 5.27344C47.5469 5.11719 47.7344 4.89062 47.9531 4.59375C48.1875 4.28125 48.4141 3.97656 48.6328 3.67969C48.8516 3.36719 49.0391 3.09375 49.1953 2.85938C49.3516 2.625 49.4297 2.48438 49.4297 2.4375V1.21875C48.9609 1.14062 48.4062 1.17969 47.7656 1.33594C47.1406 1.49219 46.5156 1.69531 45.8906 1.94531C45.2656 2.17969 44.6797 2.42969 44.1328 2.69531C43.6016 2.94531 43.1953 3.13281 42.9141 3.25781L43.3359 4.05469V9.35156ZM55.7344 23.6016C55.3906 23.3828 55.1328 23.0469 54.9609 22.5938C54.8047 22.125 54.6875 21.6406 54.6094 21.1406C54.5469 20.625 54.5156 20.1484 54.5156 19.7109V18.7266C54.5156 18.5547 54.5234 18.2109 54.5391 17.6953C54.5547 17.1641 54.5781 16.5547 54.6094 15.8672C54.6406 15.1641 54.6719 14.4219 54.7031 13.6406C54.7344 12.8438 54.7656 12.1016 54.7969 11.4141C54.8281 10.7109 54.8516 10.1016 54.8672 9.58594C54.8984 9.07031 54.9141 8.72656 54.9141 8.55469C54.9141 8.32031 54.9141 7.91406 54.9141 7.33594C54.9297 6.75781 54.9375 6.14844 54.9375 5.50781C54.9375 4.85156 54.9297 4.23438 54.9141 3.65625C54.9141 3.07812 54.9141 2.67188 54.9141 2.4375C55.1484 2.26562 55.3516 2.14844 55.5234 2.08594C55.6797 2.02344 55.8203 2.01562 55.9453 2.0625C56.0703 2.09375 56.1328 2.21875 56.1328 2.4375V21.5625C56.1328 21.6719 56.1641 21.8047 56.2266 21.9609C56.3047 22.1016 56.3984 22.2266 56.5078 22.3359C56.6172 22.4453 56.7422 22.5156 56.8828 22.5469C57.0391 22.5625 57.1953 22.5 57.3516 22.3594L60.1875 19.9453C60.2656 20.3047 60.2578 20.6797 60.1641 21.0703C60.0703 21.4609 59.9141 21.8281 59.6953 22.1719C59.4922 22.5156 59.2344 22.8281 58.9219 23.1094C58.6094 23.3906 58.2734 23.6094 57.9141 23.7656C57.5547 23.9062 57.1875 23.9766 56.8125 23.9766C56.4375 23.9609 56.0781 23.8359 55.7344 23.6016ZM62.1094 22.7812C61.7188 22.2031 61.4844 21.5625 61.4062 20.8594C61.3281 20.1406 61.3281 19.3906 61.4062 18.6094C61.4844 17.8281 61.6094 17.0391 61.7812 16.2422C61.9531 15.4453 62.1016 14.6797 62.2266 13.9453C62.3516 13.1953 62.4219 12.5 62.4375 11.8594C62.4531 11.2031 62.3438 10.6406 62.1094 10.1719C61.9844 9.92188 61.8125 9.80469 61.5938 9.82031C61.3906 9.82031 61.1641 9.85156 60.9141 9.91406C60.6797 9.96094 60.4375 9.97656 60.1875 9.96094C59.9531 9.94531 59.7422 9.79688 59.5547 9.51562C59.5703 9.45312 59.6328 9.375 59.7422 9.28125C59.8359 9.17188 59.9062 9.10938 59.9531 9.09375C61.3594 8.89062 62.5312 9.03906 63.4688 9.53906C64.4219 10.0234 65.1797 10.7188 65.7422 11.625C66.3047 12.5156 66.6875 13.5391 66.8906 14.6953C67.1094 15.8516 67.1875 17 67.125 18.1406C67.0625 19.2812 66.8828 20.3438 66.5859 21.3281C66.2891 22.2969 65.9141 23.0469 65.4609 23.5781C65.0078 24.1094 64.4922 24.3438 63.9141 24.2812C63.3359 24.2188 62.7344 23.7188 62.1094 22.7812ZM63.3281 21.9609C63.3438 22.0078 63.3906 22.0703 63.4688 22.1484C63.5469 22.2266 63.625 22.3125 63.7031 22.4062C63.7969 22.5 63.8828 22.5859 63.9609 22.6641C64.0391 22.7266 64.0938 22.7656 64.125 22.7812C64.7031 22.4531 65.1328 22.0078 65.4141 21.4453C65.6953 20.8828 65.8594 20.2578 65.9062 19.5703C65.9688 18.8828 65.9375 18.1641 65.8125 17.4141C65.7031 16.6484 65.5391 15.9141 65.3203 15.2109C65.1016 14.5078 64.8438 13.8594 64.5469 13.2656C64.2656 12.6719 63.9922 12.1875 63.7266 11.8125C63.7109 12.0156 63.6797 12.3281 63.6328 12.75C63.5859 13.1719 63.5391 13.6484 63.4922 14.1797C63.4453 14.7109 63.3906 15.2734 63.3281 15.8672C63.2656 16.4609 63.2031 17.0312 63.1406 17.5781C63.0938 18.1094 63.0469 18.5859 63 19.0078C62.9531 19.4297 62.9219 19.7422 62.9062 19.9453C62.8906 20.1016 62.8906 20.2812 62.9062 20.4844C62.9375 20.6719 62.9766 20.8594 63.0234 21.0469C63.0703 21.2344 63.1172 21.4141 63.1641 21.5859C63.2266 21.7422 63.2812 21.8672 63.3281 21.9609ZM72.2578 30.9141C71.7734 30.4297 71.5156 29.8281 71.4844 29.1094C71.4688 28.4062 71.5938 27.6406 71.8594 26.8125C72.125 26 72.4922 25.1641 72.9609 24.3047C73.4297 23.4453 73.9141 22.6172 74.4141 21.8203C74.9141 21.0078 75.375 20.2656 75.7969 19.5938C76.2344 18.9062 76.5547 18.3438 76.7578 17.9062C76.8672 17.6562 76.8906 17.3047 76.8281 16.8516C76.7812 16.3828 76.6953 15.9141 76.5703 15.4453C76.4609 14.9609 76.3359 14.5234 76.1953 14.1328C76.0703 13.7422 75.9844 13.5 75.9375 13.4062L75.5391 13.8281L71.0625 21.5625C71.0312 21.5938 70.9609 21.6484 70.8516 21.7266C70.7578 21.8047 70.6484 21.8828 70.5234 21.9609C70.3984 22.0391 70.2656 22.1172 70.125 22.1953C70 22.2734 69.9062 22.3281 69.8438 22.3594C69.3438 22.5625 68.9688 22.5391 68.7188 22.2891C68.4844 22.0391 68.3594 21.6406 68.3438 21.0938C68.3438 20.5312 68.4297 19.8594 68.6016 19.0781C68.7891 18.2812 69.0469 17.4453 69.375 16.5703C69.7188 15.6953 70.1172 14.8125 70.5703 13.9219C71.0234 13.0312 71.5156 12.2109 72.0469 11.4609C72.5938 10.6953 73.1562 10.0391 73.7344 9.49219C74.3281 8.94531 74.9219 8.57812 75.5156 8.39062C75.8125 8.48438 75.9609 8.60938 75.9609 8.76562C75.9766 8.90625 75.8984 9.07031 75.7266 9.25781C75.5703 9.42969 75.3516 9.61719 75.0703 9.82031C74.8047 10.0234 74.5234 10.2266 74.2266 10.4297C73.9453 10.6172 73.6797 10.7969 73.4297 10.9688C73.1953 11.1406 73.0391 11.2891 72.9609 11.4141C72.5859 12.2422 72.1953 13.0234 71.7891 13.7578C71.3828 14.4922 71.0156 15.2266 70.6875 15.9609C70.375 16.6953 70.1328 17.4531 69.9609 18.2344C69.7891 19 69.75 19.8359 69.8438 20.7422L70.2422 20.3203C70.8203 19.6328 71.3438 18.8438 71.8125 17.9531C72.2812 17.0625 72.7109 16.1719 73.1016 15.2812C73.4922 14.375 73.8516 13.5156 74.1797 12.7031C74.5078 11.875 74.8125 11.1875 75.0938 10.6406C75.375 10.0938 75.6484 9.72656 75.9141 9.53906C76.1797 9.35156 76.4375 9.44531 76.6875 9.82031C76.9531 10.1953 77.2266 10.8984 77.5078 11.9297C77.7891 12.9609 78.0859 14.4062 78.3984 16.2656C78.4766 16.2031 78.625 16.0938 78.8438 15.9375C79.0781 15.7656 79.3203 15.5938 79.5703 15.4219C79.8359 15.25 80.0859 15.0938 80.3203 14.9531C80.5547 14.7969 80.7188 14.6953 80.8125 14.6484C80.8906 14.6172 81.0312 14.6016 81.2344 14.6016C81.4375 14.6016 81.5703 14.6172 81.6328 14.6484C81.5703 14.9297 81.3906 15.2578 81.0938 15.6328C80.8125 15.9922 80.5 16.3359 80.1562 16.6641C79.8281 16.9922 79.5234 17.2812 79.2422 17.5312C78.9609 17.7656 78.8125 17.8906 78.7969 17.9062C78.7969 18.0625 78.7891 18.2969 78.7734 18.6094C78.7734 18.9219 78.7578 19.2812 78.7266 19.6875C78.7109 20.0938 78.6875 20.5156 78.6562 20.9531C78.625 21.3906 78.5938 21.8125 78.5625 22.2188C78.5312 22.625 78.5 22.9844 78.4688 23.2969L78.3984 24C78.3672 24.2031 78.25 24.5703 78.0469 25.1016C77.8594 25.6484 77.6172 26.2578 77.3203 26.9297C77.0234 27.6016 76.6797 28.2734 76.2891 28.9453C75.8984 29.6172 75.4844 30.1719 75.0469 30.6094C74.6094 31.0625 74.1484 31.3438 73.6641 31.4531C73.1953 31.5625 72.7266 31.3828 72.2578 30.9141ZM73.5 26.8594C73.4844 26.9844 73.4688 27.1953 73.4531 27.4922C73.4531 27.8047 73.4531 28.1328 73.4531 28.4766C73.4531 28.8203 73.4531 29.1484 73.4531 29.4609C73.4688 29.7734 73.4844 29.9844 73.5 30.0938C74.3281 29.75 75.0156 29.1719 75.5625 28.3594C76.1094 27.5469 76.5234 26.6406 76.8047 25.6406C77.0859 24.6562 77.25 23.6484 77.2969 22.6172C77.3594 21.5859 77.3125 20.6875 77.1562 19.9219C76.7031 20.2969 76.2734 20.7656 75.8672 21.3281C75.4609 21.875 75.0938 22.4688 74.7656 23.1094C74.4375 23.7344 74.1641 24.375 73.9453 25.0312C73.7266 25.6875 73.5781 26.2969 73.5 26.8594ZM82.2891 23.6016C81.9141 23.3203 81.6328 22.9297 81.4453 22.4297C81.2734 21.9141 81.1797 21.4375 81.1641 21C81.1641 20.5469 81.2266 20.2031 81.3516 19.9688C81.4766 19.7188 81.6484 19.7109 81.8672 19.9453C81.8359 20.7891 81.9922 21.4297 82.3359 21.8672C82.6797 22.3047 83.0938 22.5781 83.5781 22.6875C84.0781 22.7969 84.6016 22.7656 85.1484 22.5938C85.7109 22.4219 86.1875 22.1562 86.5781 21.7969C86.9844 21.4219 87.2578 20.9688 87.3984 20.4375C87.5547 19.9062 87.4766 19.3359 87.1641 18.7266C86.7578 18.2734 86.2969 17.8359 85.7812 17.4141C85.2812 16.9766 84.7734 16.5469 84.2578 16.125C83.7422 15.7031 83.2422 15.2734 82.7578 14.8359C82.2734 14.3828 81.8438 13.9062 81.4688 13.4062C81.4375 13.375 81.4219 13.3125 81.4219 13.2188C81.4219 13.1094 81.4375 13.0391 81.4688 13.0078C81.5781 12.8672 81.7344 12.6484 81.9375 12.3516C82.1406 12.0547 82.375 11.7188 82.6406 11.3438C82.9062 10.9688 83.1875 10.5781 83.4844 10.1719C83.7812 9.75 84.0625 9.35156 84.3281 8.97656C84.5938 8.60156 84.8281 8.26562 85.0312 7.96875C85.25 7.67188 85.4141 7.45312 85.5234 7.3125C85.7422 7.03125 85.9609 6.86719 86.1797 6.82031C86.4141 6.77344 86.7422 6.80469 87.1641 6.91406C87.1484 6.97656 87.0859 7.11719 86.9766 7.33594C86.8672 7.53906 86.7891 7.67188 86.7422 7.73438C86.6172 7.92188 86.3828 8.25 86.0391 8.71875C85.6953 9.17188 85.3281 9.66406 84.9375 10.1953C84.5469 10.7109 84.1797 11.2031 83.8359 11.6719C83.4922 12.125 83.25 12.4375 83.1094 12.6094C82.9844 12.7969 83.0312 13.0156 83.25 13.2656C83.4688 13.5156 83.7812 13.7969 84.1875 14.1094C84.5938 14.4219 85.0547 14.7734 85.5703 15.1641C86.0859 15.5391 86.5703 15.9453 87.0234 16.3828C87.4922 16.8203 87.8828 17.2891 88.1953 17.7891C88.5234 18.2891 88.6953 18.8281 88.7109 19.4062C88.7422 19.9688 88.5781 20.5625 88.2188 21.1875C87.875 21.8125 87.25 22.4766 86.3438 23.1797C86.0625 23.3984 85.75 23.5859 85.4062 23.7422C85.0781 23.8984 84.7344 24 84.375 24.0469C84.0156 24.1094 83.6562 24.1094 83.2969 24.0469C82.9375 23.9844 82.6016 23.8359 82.2891 23.6016Z" fill="white"/>
</svg>
